<svg width="233" height="159" viewBox="0 0 233 159" fill="none" xmlns="http://www.w3.org/2000/svg">
<rect width="233" height="158.025" fill="#2C8EFF"></rect>
<path d="M32.6735 84.9079H32.7676L41.6108 70.326H52.4297L41.6108 86.7895L52.9 104.664H42.0812L32.7676 88.671H32.6735V104.664H23.2658V70.326H32.6735V84.9079ZM59.0988 74.6065C62.2974 71.4393 66.5936 69.8556 71.9873 69.8556C77.3811 69.8556 81.6616 71.4393 84.8288 74.6065C88.0274 77.7424 89.6267 82.0386 89.6267 87.495C89.6267 92.9515 88.0274 97.2634 84.8288 100.431C81.6616 103.566 77.3811 105.134 71.9873 105.134C66.5936 105.134 62.2974 103.566 59.0988 100.431C55.9316 97.2634 54.3479 92.9515 54.3479 87.495C54.3479 82.0386 55.9316 77.7424 59.0988 74.6065ZM63.9908 87.495C63.9908 94.0804 66.6563 97.3731 71.9873 97.3731C77.3184 97.3731 79.9839 94.0804 79.9839 87.495C79.9839 80.9097 77.3184 77.617 71.9873 77.617C66.6563 77.617 63.9908 80.9097 63.9908 87.495ZM118.728 85.8487H118.634L114.024 97.6083H105.557L100.947 85.8487H100.853V104.664H92.0099V70.326H101.794L109.743 90.5525H109.837L117.787 70.326H127.759V104.664H118.728V85.8487ZM134.921 74.6065C138.119 71.4393 142.415 69.8556 147.809 69.8556C153.203 69.8556 157.483 71.4393 160.651 74.6065C163.849 77.7424 165.449 82.0386 165.449 87.495C165.449 92.9515 163.849 97.2634 160.651 100.431C157.483 103.566 153.203 105.134 147.809 105.134C142.415 105.134 138.119 103.566 134.921 100.431C131.753 97.2634 130.17 92.9515 130.17 87.495C130.17 82.0386 131.753 77.7424 134.921 74.6065ZM139.813 87.495C139.813 94.0804 142.478 97.3731 147.809 97.3731C153.14 97.3731 155.806 94.0804 155.806 87.495C155.806 80.9097 153.14 77.617 147.809 77.617C142.478 77.617 139.813 80.9097 139.813 87.495ZM177.004 92.6693V104.664H167.832V70.5612C171.908 70.0908 175.985 69.8556 180.062 69.8556C189.469 69.8556 194.173 73.3835 194.173 80.4393C194.173 82.4149 193.562 84.2494 192.339 85.9428C191.116 87.6362 189.532 88.8435 187.588 89.5647V89.6588C188.529 90.1919 189.313 90.8818 189.94 91.7285C190.567 92.5438 191.163 93.7198 191.727 95.2564L195.114 104.664H185.471L182.555 95.7268C182.21 94.6292 181.771 93.8452 181.238 93.3748C180.705 92.9045 179.999 92.6693 179.121 92.6693H177.004ZM177.004 85.8487H179.591C181.191 85.8487 182.445 85.4567 183.354 84.6727C184.295 83.8574 184.766 82.7598 184.766 81.38C184.766 78.4009 183.041 76.9114 179.591 76.9114C178.588 76.9114 177.726 76.9898 177.004 77.1466V85.8487ZM198.197 104.664V70.326H208.546V104.664H198.197ZM42.5516 129.553H32.6735V143.664H23.2658V109.326H32.6735V122.497H42.5516V109.326H51.9593V143.664H42.5516V129.553ZM59.1025 113.607C62.3011 110.439 66.5973 108.856 71.991 108.856C77.3848 108.856 81.6653 110.439 84.8325 113.607C88.0311 116.742 89.6304 121.039 89.6304 126.495C89.6304 131.951 88.0311 136.263 84.8325 139.431C81.6653 142.566 77.3848 144.134 71.991 144.134C66.5973 144.134 62.3011 142.566 59.1025 139.431C55.9352 136.263 54.3516 131.951 54.3516 126.495C54.3516 121.039 55.9352 116.742 59.1025 113.607ZM63.9945 126.495C63.9945 133.08 66.66 136.373 71.991 136.373C77.322 136.373 79.9876 133.08 79.9876 126.495C79.9876 119.91 77.322 116.617 71.991 116.617C66.66 116.617 63.9945 119.91 63.9945 126.495ZM116.097 140.465C113.683 142.911 110.202 144.134 105.655 144.134C101.108 144.134 97.6112 142.911 95.1652 140.465C92.7505 137.988 91.5432 134.35 91.5432 129.553V109.326H101.045V130.258C101.045 132.485 101.437 134.1 102.221 135.103C103.005 136.107 104.181 136.608 105.749 136.608C107.317 136.608 108.493 136.107 109.277 135.103C110.061 134.1 110.453 132.485 110.453 130.258V109.326H119.766V129.553C119.766 134.35 118.543 137.988 116.097 140.465ZM146.146 118.499C142.979 116.931 139.765 116.147 136.503 116.147C135.03 116.147 133.916 116.413 133.164 116.946C132.411 117.448 132.035 118.122 132.035 118.969C132.035 120.286 133.054 121.227 135.092 121.791C140.016 123.108 143.481 124.692 145.488 126.542C147.495 128.361 148.498 130.697 148.498 133.551C148.498 137 147.307 139.634 144.923 141.453C142.54 143.241 138.949 144.134 134.152 144.134C132.145 144.134 129.981 143.805 127.66 143.147C125.371 142.457 123.537 141.61 122.157 140.607L124.273 133.316C125.873 134.413 127.598 135.276 129.448 135.903C131.329 136.53 133.054 136.843 134.622 136.843C137.444 136.843 138.855 135.824 138.855 133.786C138.855 132.469 137.601 131.45 135.092 130.728C130.514 129.411 127.253 127.828 125.308 125.978C123.364 124.127 122.392 121.791 122.392 118.969C122.392 115.864 123.568 113.403 125.92 111.584C128.303 109.765 131.674 108.856 136.033 108.856C140.674 108.856 144.594 109.64 147.793 111.208L146.146 118.499ZM173.487 122.497V129.553H161.257V136.138H174.428V143.664H151.85V109.326H174.428V116.852H161.257V122.497H173.487Z" fill="white"></path>
<path d="M197.991 111.262H208.489V118.413H202.189L208.491 125.759V132.016H197.988V135.591H208.491V142.742H180.336V135.591H190.838V132.016H180.336V125.759L186.637 118.413H180.338V111.262H190.835V108.777H197.991V111.262ZM189.757 125.759H199.07L194.413 120.33L189.757 125.759Z" fill="white" fill-opacity="0.6"></path>
</svg>