<svg width="233" height="97" viewBox="0 0 233 97" fill="none" xmlns="http://www.w3.org/2000/svg">
<rect width="233" height="97" fill="#2C8EFF"></rect>
<path d="M32.6735 23.9079H32.7676L41.6108 9.32602H52.4297L41.6108 25.7895L52.9 43.6641H42.0812L32.7676 27.671H32.6735V43.6641H23.2658V9.32602H32.6735V23.9079ZM59.0988 13.6065C62.2974 10.4393 66.5936 8.85564 71.9873 8.85564C77.3811 8.85564 81.6616 10.4393 84.8288 13.6065C88.0274 16.7424 89.6267 21.0386 89.6267 26.495C89.6267 31.9515 88.0274 36.2634 84.8288 39.4306C81.6616 42.5665 77.3811 44.1344 71.9873 44.1344C66.5936 44.1344 62.2974 42.5665 59.0988 39.4306C55.9316 36.2634 54.3479 31.9515 54.3479 26.495C54.3479 21.0386 55.9316 16.7424 59.0988 13.6065ZM63.9908 26.495C63.9908 33.0804 66.6563 36.3731 71.9873 36.3731C77.3184 36.3731 79.9839 33.0804 79.9839 26.495C79.9839 19.9097 77.3184 16.617 71.9873 16.617C66.6563 16.617 63.9908 19.9097 63.9908 26.495ZM118.728 24.8487H118.634L114.024 36.6083H105.557L100.947 24.8487H100.853V43.6641H92.0099V9.32602H101.794L109.743 29.5525H109.837L117.787 9.32602H127.759V43.6641H118.728V24.8487ZM134.921 13.6065C138.119 10.4393 142.415 8.85564 147.809 8.85564C153.203 8.85564 157.483 10.4393 160.651 13.6065C163.849 16.7424 165.449 21.0386 165.449 26.495C165.449 31.9515 163.849 36.2634 160.651 39.4306C157.483 42.5665 153.203 44.1344 147.809 44.1344C142.415 44.1344 138.119 42.5665 134.921 39.4306C131.753 36.2634 130.17 31.9515 130.17 26.495C130.17 21.0386 131.753 16.7424 134.921 13.6065ZM139.813 26.495C139.813 33.0804 142.478 36.3731 147.809 36.3731C153.14 36.3731 155.806 33.0804 155.806 26.495C155.806 19.9097 153.14 16.617 147.809 16.617C142.478 16.617 139.813 19.9097 139.813 26.495ZM177.004 31.6693V43.6641H167.832V9.56121C171.908 9.09083 175.985 8.85564 180.062 8.85564C189.469 8.85564 194.173 12.3835 194.173 19.4393C194.173 21.4149 193.562 23.2494 192.339 24.9428C191.116 26.6362 189.532 27.8435 187.588 28.5647V28.6588C188.529 29.1919 189.313 29.8818 189.94 30.7285C190.567 31.5438 191.163 32.7198 191.727 34.2564L195.114 43.6641H185.471L182.555 34.7268C182.21 33.6292 181.771 32.8452 181.238 32.3748C180.705 31.9045 179.999 31.6693 179.121 31.6693H177.004ZM177.004 24.8487H179.591C181.191 24.8487 182.445 24.4567 183.354 23.6727C184.295 22.8574 184.766 21.7598 184.766 20.38C184.766 17.4009 183.041 15.9114 179.591 15.9114C178.588 15.9114 177.726 15.9898 177.004 16.1466V24.8487ZM198.197 43.6641V9.32602H208.546V43.6641H198.197ZM42.5516 68.5525H32.6735V82.6641H23.2658V48.326H32.6735V61.4968H42.5516V48.326H51.9593V82.6641H42.5516V68.5525ZM59.1025 52.6065C62.3011 49.4393 66.5973 47.8556 71.991 47.8556C77.3848 47.8556 81.6653 49.4393 84.8325 52.6065C88.0311 55.7424 89.6304 60.0386 89.6304 65.495C89.6304 70.9515 88.0311 75.2634 84.8325 78.4306C81.6653 81.5665 77.3848 83.1344 71.991 83.1344C66.5973 83.1344 62.3011 81.5665 59.1025 78.4306C55.9352 75.2634 54.3516 70.9515 54.3516 65.495C54.3516 60.0386 55.9352 55.7424 59.1025 52.6065ZM63.9945 65.495C63.9945 72.0804 66.66 75.3731 71.991 75.3731C77.322 75.3731 79.9876 72.0804 79.9876 65.495C79.9876 58.9097 77.322 55.617 71.991 55.617C66.66 55.617 63.9945 58.9097 63.9945 65.495ZM116.097 79.4655C113.683 81.9114 110.202 83.1344 105.655 83.1344C101.108 83.1344 97.6112 81.9114 95.1652 79.4655C92.7505 76.9881 91.5432 73.3505 91.5432 68.5525V48.326H101.045V69.2581C101.045 71.4846 101.437 73.0996 102.221 74.1031C103.005 75.1066 104.181 75.6083 105.749 75.6083C107.317 75.6083 108.493 75.1066 109.277 74.1031C110.061 73.0996 110.453 71.4846 110.453 69.2581V48.326H119.766V68.5525C119.766 73.3505 118.543 76.9881 116.097 79.4655ZM146.146 57.4985C142.979 55.9306 139.765 55.1466 136.503 55.1466C135.03 55.1466 133.916 55.4131 133.164 55.9462C132.411 56.448 132.035 57.1222 132.035 57.9689C132.035 59.286 133.054 60.2267 135.092 60.7912C140.016 62.1083 143.481 63.6919 145.488 65.5421C147.495 67.3609 148.498 69.6971 148.498 72.5508C148.498 76.0003 147.307 78.6344 144.923 80.4533C142.54 82.2407 138.949 83.1344 134.152 83.1344C132.145 83.1344 129.981 82.8052 127.66 82.1466C125.371 81.4567 123.537 80.6101 122.157 79.6066L124.273 72.3156C125.873 73.4132 127.598 74.2755 129.448 74.9027C131.329 75.5299 133.054 75.8435 134.622 75.8435C137.444 75.8435 138.855 74.8243 138.855 72.786C138.855 71.4689 137.601 70.4498 135.092 69.7285C130.514 68.4114 127.253 66.8278 125.308 64.9776C123.364 63.1274 122.392 60.7912 122.392 57.9689C122.392 54.8644 123.568 52.4027 125.92 50.5839C128.303 48.765 131.674 47.8556 136.033 47.8556C140.674 47.8556 144.594 48.6396 147.793 50.2076L146.146 57.4985ZM173.487 61.4968V68.5525H161.257V75.1379H174.428V82.6641H151.85V48.326H174.428V55.8522H161.257V61.4968H173.487Z" fill="white"></path>
<path d="M197.991 50.2623H208.489V57.4127H202.189L208.491 64.7586V71.0161H197.988V74.5912H208.491V81.7416H180.336V74.5912H190.838V71.0161H180.336V64.7595L186.637 57.4127H180.338V50.2623H190.835V47.7773H197.991V50.2623ZM189.757 64.7595H199.07L194.413 59.3304L189.757 64.7595Z" fill="white" fill-opacity="0.6"></path>
</svg>