<svg width="233" height="103" viewBox="0 0 233 103" fill="none" xmlns="http://www.w3.org/2000/svg">
<rect width="233" height="103" fill="#2C8EFF"></rect>
<path d="M32.6735 29.2439H32.7676L41.6108 14.662H52.4297L41.6108 31.1254L52.9 49H42.0812L32.7676 33.0069H32.6735V49H23.2658V14.662H32.6735V29.2439ZM59.0988 18.9425C62.2974 15.7752 66.5936 14.1916 71.9873 14.1916C77.3811 14.1916 81.6616 15.7752 84.8288 18.9425C88.0274 22.0783 89.6267 26.3745 89.6267 31.831C89.6267 37.2874 88.0274 41.5993 84.8288 44.7665C81.6616 47.9024 77.3811 49.4704 71.9873 49.4704C66.5936 49.4704 62.2974 47.9024 59.0988 44.7665C55.9316 41.5993 54.3479 37.2874 54.3479 31.831C54.3479 26.3745 55.9316 22.0783 59.0988 18.9425ZM63.9908 31.831C63.9908 38.4164 66.6563 41.709 71.9873 41.709C77.3184 41.709 79.9839 38.4164 79.9839 31.831C79.9839 25.2456 77.3184 21.9529 71.9873 21.9529C66.6563 21.9529 63.9908 25.2456 63.9908 31.831ZM118.728 30.1846H118.634L114.024 41.9442H105.557L100.947 30.1846H100.853V49H92.0099V14.662H101.794L109.743 34.8885H109.837L117.787 14.662H127.759V49H118.728V30.1846ZM134.921 18.9425C138.119 15.7752 142.415 14.1916 147.809 14.1916C153.203 14.1916 157.483 15.7752 160.651 18.9425C163.849 22.0783 165.449 26.3745 165.449 31.831C165.449 37.2874 163.849 41.5993 160.651 44.7665C157.483 47.9024 153.203 49.4704 147.809 49.4704C142.415 49.4704 138.119 47.9024 134.921 44.7665C131.753 41.5993 130.17 37.2874 130.17 31.831C130.17 26.3745 131.753 22.0783 134.921 18.9425ZM139.813 31.831C139.813 38.4164 142.478 41.709 147.809 41.709C153.14 41.709 155.806 38.4164 155.806 31.831C155.806 25.2456 153.14 21.9529 147.809 21.9529C142.478 21.9529 139.813 25.2456 139.813 31.831ZM177.004 37.0052V49H167.832V14.8971C171.908 14.4268 175.985 14.1916 180.062 14.1916C189.469 14.1916 194.173 17.7195 194.173 24.7752C194.173 26.7508 193.562 28.5853 192.339 30.2787C191.116 31.9721 189.532 33.1794 187.588 33.9007V33.9947C188.529 34.5278 189.313 35.2177 189.94 36.0644C190.567 36.8798 191.163 38.0557 191.727 39.5923L195.114 49H185.471L182.555 40.0627C182.21 38.9651 181.771 38.1812 181.238 37.7108C180.705 37.2404 179.999 37.0052 179.121 37.0052H177.004ZM177.004 30.1846H179.591C181.191 30.1846 182.445 29.7926 183.354 29.0087C184.295 28.1933 184.766 27.0958 184.766 25.716C184.766 22.7369 183.041 21.2473 179.591 21.2473C178.588 21.2473 177.726 21.3257 177.004 21.4825V30.1846ZM198.197 49V14.662H208.546V49H198.197ZM42.5516 73.8885H32.6735V88H23.2658V53.662H32.6735V66.8327H42.5516V53.662H51.9593V88H42.5516V73.8885ZM59.1025 57.9425C62.3011 54.7752 66.5973 53.1916 71.991 53.1916C77.3848 53.1916 81.6653 54.7752 84.8325 57.9425C88.0311 61.0783 89.6304 65.3745 89.6304 70.831C89.6304 76.2874 88.0311 80.5993 84.8325 83.7665C81.6653 86.9024 77.3848 88.4704 71.991 88.4704C66.5973 88.4704 62.3011 86.9024 59.1025 83.7665C55.9352 80.5993 54.3516 76.2874 54.3516 70.831C54.3516 65.3745 55.9352 61.0783 59.1025 57.9425ZM63.9945 70.831C63.9945 77.4164 66.66 80.709 71.991 80.709C77.322 80.709 79.9876 77.4164 79.9876 70.831C79.9876 64.2456 77.322 60.9529 71.991 60.9529C66.66 60.9529 63.9945 64.2456 63.9945 70.831ZM116.097 84.8014C113.683 87.2474 110.202 88.4704 105.655 88.4704C101.108 88.4704 97.6112 87.2474 95.1652 84.8014C92.7505 82.324 91.5432 78.6864 91.5432 73.8885V53.662H101.045V74.5941C101.045 76.8205 101.437 78.4355 102.221 79.439C103.005 80.4425 104.181 80.9442 105.749 80.9442C107.317 80.9442 108.493 80.4425 109.277 79.439C110.061 78.4355 110.453 76.8205 110.453 74.5941V53.662H119.766V73.8885C119.766 78.6864 118.543 82.324 116.097 84.8014ZM146.146 62.8344C142.979 61.2665 139.765 60.4825 136.503 60.4825C135.03 60.4825 133.916 60.7491 133.164 61.2822C132.411 61.7839 132.035 62.4581 132.035 63.3048C132.035 64.6219 133.054 65.5627 135.092 66.1271C140.016 67.4442 143.481 69.0278 145.488 70.878C147.495 72.6968 148.498 75.0331 148.498 77.8867C148.498 81.3362 147.307 83.9704 144.923 85.7892C142.54 87.5767 138.949 88.4704 134.152 88.4704C132.145 88.4704 129.981 88.1411 127.66 87.4826C125.371 86.7927 123.537 85.946 122.157 84.9425L124.273 77.6515C125.873 78.7491 127.598 79.6115 129.448 80.2387C131.329 80.8658 133.054 81.1794 134.622 81.1794C137.444 81.1794 138.855 80.1603 138.855 78.1219C138.855 76.8049 137.601 75.7857 135.092 75.0644C130.514 73.7474 127.253 72.1637 125.308 70.3136C123.364 68.4634 122.392 66.1271 122.392 63.3048C122.392 60.2003 123.568 57.7386 125.92 55.9198C128.303 54.101 131.674 53.1916 136.033 53.1916C140.674 53.1916 144.594 53.9755 147.793 55.5435L146.146 62.8344ZM173.487 66.8327V73.8885H161.257V80.4739H174.428V88H151.85V53.662H174.428V61.1881H161.257V66.8327H173.487Z" fill="white"></path>
<path d="M197.991 56.2623H208.489V63.4127H202.189L208.491 70.7586V77.0161H197.988V80.5912H208.491V87.7416H180.336V80.5912H190.838V77.0161H180.336V70.7595L186.637 63.4127H180.338V56.2623H190.835V53.7773H197.991V56.2623ZM189.757 70.7595H199.07L194.413 65.3304L189.757 70.7595Z" fill="white" fill-opacity="0.6"></path>
</svg>